<?xml version="1.0" encoding="UTF-8"?>
<svg width="62px" height="62px" viewBox="0 0 62 62" version="1.1" xmlns="http://www.w3.org/2000/svg" xmlns:xlink="http://www.w3.org/1999/xlink">
    <!-- Generator: Sketch 64 (93537) - https://sketch.com -->
    <title>Group 12 Copy</title>
    <desc>Created with Sketch.</desc>
    <g id="Page-1" stroke="none" stroke-width="1" fill="none" fill-rule="evenodd">
        <g id="Artboard" transform="translate(-215.000000, -245.000000)">
            <g id="Group-12-Copy" transform="translate(215.000000, 245.000000)">
                <rect id="Rectangle" x="0" y="0" width="61.599999" height="61.599999"></rect>
                <circle id="Oval" fill="#FDB635" cx="30.7999995" cy="30.7999995" r="30.7999995"></circle>
                <path d="M18.0335789,36.6374066 C20.2612631,36.6374066 22.067158,38.4646652 22.067158,40.7187029 C22.067158,42.9727406 20.2612631,44.7999992 18.0335789,44.7999992 C15.8058946,44.7999992 13.9999998,42.9727406 13.9999998,40.7187029 C13.9999998,38.4646652 15.8058946,36.6374066 18.0335789,36.6374066 Z M34.3640485,16.8960164 L34.3640485,28.2810241 L43.9321541,28.2810241 L43.9321541,16.8960164 L50.3999991,16.8960164 L50.3999991,44.3901717 L43.9315755,44.3901717 L43.9315755,34.0508097 L34.3640485,34.0508097 L34.3640485,44.3901717 L27.9343926,44.3901717 L27.9343926,16.8960164 L34.3640485,16.8960164 Z M21.2212116,16.7999997 L21.2212116,34.8739775 L14.8459462,34.8739775 L14.8459462,16.7999997 L21.2212116,16.7999997 Z" id="Combined-Shape" fill="#000000" fill-rule="nonzero"></path>
            </g>
        </g>
    </g>
</svg>